HIERARCHY
ROOT Hips
{
	OFFSET -0.179506 -22.333345 2.821913
	CHANNELS 6 Xposition Yposition Zposition Zrotation Yrotation Xrotation 
	JOINT LeftUpLeg
	{
		OFFSET 6.951974 -9.140623 -0.681533
		CHANNELS 3 Zrotation Yrotation Xrotation
		JOINT LeftLeg
		{
			OFFSET 3.427654 -37.519855 -0.449580
			CHANNELS 3 Zrotation Yrotation Xrotation
			JOINT LeftFoot
			{
				OFFSET -1.359570 -39.796059 -4.369333
				CHANNELS 3 Zrotation Yrotation Xrotation
				JOINT LeftToe
				{
					OFFSET 2.635814 -5.579078 11.928840
					CHANNELS 3 Zrotation Yrotation Xrotation
					End Site
					{
						OFFSET 0.000000 0.000000 0.000000
					}
				}
			}
		}
	}
	JOINT RightUpLeg
	{
		OFFSET -6.767048 -9.052170 -0.431982
		CHANNELS 3 Zrotation Yrotation Xrotation
		JOINT RightLeg
		{
			OFFSET -3.829005 -38.256897 -0.885003
			CHANNELS 3 Zrotation Yrotation Xrotation
			JOINT RightFoot
			{
				OFFSET 1.577377 -39.841461 -4.231180
				CHANNELS 3 Zrotation Yrotation Xrotation
				JOINT RightToe
				{
					OFFSET -2.537174 -4.814398 12.334795
					CHANNELS 3 Zrotation Yrotation Xrotation
					End Site
					{
						OFFSET 0.000000 0.000000 0.000000
					}
				}
			}
		}
	}
	JOINT Spine
	{
		OFFSET -0.253288 10.896323 -2.669631
		CHANNELS 3 Zrotation Yrotation Xrotation
		JOINT Spine1
		{
			OFFSET 0.548704 13.518043 0.109247
			CHANNELS 3 Zrotation Yrotation Xrotation
			JOINT Spine2
			{
				OFFSET 0.145701 5.292222 2.542457
				CHANNELS 3 Zrotation Yrotation Xrotation
				JOINT Neck
				{
					OFFSET -0.277840 21.387037 -4.285703
					CHANNELS 3 Zrotation Yrotation Xrotation
					JOINT Head
					{
						OFFSET 0.515184 6.496960 5.134897
						CHANNELS 3 Zrotation Yrotation Xrotation
						End Site
						{
							OFFSET 0.000000 0.000000 0.000000
						}
					}
				}
				JOINT LeftShoulder
				{
					OFFSET 7.884473 12.174932 -3.408961
					CHANNELS 3 Zrotation Yrotation Xrotation
					JOINT LeftArm
					{
						OFFSET 9.097692 3.046888 -0.886815
						CHANNELS 3 Zrotation Yrotation Xrotation
						JOINT LeftForeArm
						{
							OFFSET 25.961220 -1.277207 -2.745643
							CHANNELS 3 Zrotation Yrotation Xrotation
							JOINT LeftHand
							{
								OFFSET 24.923361 0.898606 -0.117091
								CHANNELS 3 Zrotation Yrotation Xrotation
								End Site
								{
									OFFSET 0.000000 0.000000 0.000000
								}
							}
						}
					}
				}
				JOINT RightShoulder
				{
					OFFSET -8.175920 11.883285 -3.861528
					CHANNELS 3 Zrotation Yrotation Xrotation
					JOINT RightArm
					{
						OFFSET -9.601238 3.255117 -0.914307
						CHANNELS 3 Zrotation Yrotation Xrotation
						JOINT RightForeArm
						{
							OFFSET -25.374195 -1.332924 -2.140099
							CHANNELS 3 Zrotation Yrotation Xrotation
							JOINT RightHand
							{
								OFFSET -25.529810 0.777228 -0.555919
								CHANNELS 3 Zrotation Yrotation Xrotation
								End Site
								{
									OFFSET 0.000000 0.000000 0.000000
								}
							}
						}
					}
				}
			}
		}
	}
}
MOTION
Frames: 7
Frame Time: 0.033333
14.270514 -39.713699 92.793793 -121.327244 2.477700 85.828512 10.824994 4.041955 -4.047554 -4.277383 0.332620 25.508311 2.972832 10.828154 -27.792205 nan nan nan -13.362807 -11.406255 -11.168191 1.904781 -12.581565 16.958516 5.703400 -4.470164 -4.875455 nan nan nan -6.123526 3.789556 1.680939 8.313549 -6.508045 10.405374 2.386416 -0.274530 -3.337813 0.550838 -18.498503 23.723656 11.868313 -16.536734 15.396919 -14.137181 -17.368489 4.894438 -76.358335 -52.109762 38.007975 104.193437 -73.818366 -79.655749 -2.285308 -20.693557 -6.363575 15.129169 5.749989 -4.129542 38.665989 17.254587 -10.249360 -105.815711 50.489091 -87.706775 5.581081 11.322381 -4.439438 
14.217039 -39.700306 92.792648 -121.411088 2.715684 85.514506 11.177894 4.328044 -3.641421 -4.019745 0.671271 25.512672 2.774252 9.935051 -27.761746 nan nan nan -13.222768 -11.275968 -10.804214 1.783105 -13.194862 17.016628 6.477101 -3.943943 -4.966097 nan nan nan -6.028574 4.069402 1.857620 8.034642 -6.210067 11.286519 2.704096 -0.085791 -3.915478 2.665120 -17.101101 23.117034 12.280738 -19.059395 14.496810 -13.626106 -17.648649 4.930220 -77.624512 -53.066768 38.413474 99.834229 -74.642618 -79.651292 -9.642616 -23.488985 -2.625415 13.701446 6.943701 -0.868522 40.021042 15.286047 -13.111097 -109.170100 48.096165 -96.242362 12.394752 15.211456 -9.644538 
14.208689 -39.749279 92.790398 -121.411185 2.769884 85.449637 11.215652 4.339094 -3.597677 -4.055197 0.568341 25.535335 2.777333 10.055179 -27.787204 nan nan nan -13.176400 -11.213729 -10.844375 1.717539 -13.189902 17.172748 6.585321 -4.002449 -4.959482 nan nan nan -6.118547 4.113563 1.813423 8.087471 -6.178343 11.325850 2.789054 -0.051468 -3.775630 2.682482 -17.060286 23.157006 12.373203 -19.046831 14.426015 -13.712809 -17.683301 4.972827 -77.640297 -52.927636 38.333427 99.541848 -74.880863 -79.610163 -9.816466 -23.421863 -2.444165 13.849130 6.869048 -0.945887 40.181234 15.119536 -13.233667 -109.233786 48.297340 -96.622507 12.639638 15.232668 -9.482530 
14.190948 -39.794033 92.784157 -121.384581 2.772719 85.404399 11.198761 4.286800 -3.576815 -4.130042 0.471517 25.577957 2.816377 10.210205 -27.842588 nan nan nan -13.209238 -11.236739 -10.938998 1.709487 -13.151794 17.409022 6.619489 -4.068794 -5.011334 nan nan nan -6.240510 4.186844 1.720484 8.128620 -6.131598 11.390488 2.830420 0.005272 -3.594190 2.674607 -17.205182 23.038738 12.522575 -18.898714 14.521112 -13.825817 -17.780685 5.008900 -77.661701 -52.821199 38.385250 99.028221 -75.067910 -79.088985 -9.203296 -23.296214 -2.741547 14.103657 6.639201 -1.220768 40.301589 14.887030 -13.161578 -109.329528 48.579438 -96.978875 12.382064 15.233068 -9.534807 
14.194983 -39.824371 92.802383 -121.436455 2.857025 85.376580 11.258534 4.565208 -3.575285 -3.877416 0.626808 25.703612 2.657254 9.667438 -28.026287 nan nan nan -13.140725 -11.139893 -11.080303 1.557990 -13.427017 17.778267 6.749953 -3.821050 -5.209469 nan nan nan -6.225461 4.347477 1.643231 8.303673 -6.126867 12.008026 2.825378 -0.050724 -4.222967 2.859823 -16.445705 23.404047 12.926311 -19.609836 13.714106 -13.999565 -17.195729 5.169668 -78.696059 -53.897334 38.962254 97.026200 -76.740500 -78.112197 -21.132103 -25.432052 -1.195139 14.037092 6.259075 -0.987178 40.893233 15.314480 -13.329620 -109.517894 48.223238 -96.525408 16.419864 15.455128 -9.130624 
14.200998 -39.829285 92.796478 -121.447396 2.864709 85.539320 11.248484 4.802179 -3.772707 -3.708483 0.834003 25.819072 2.686488 9.197007 -28.068060 nan nan nan -13.102153 -11.242043 -11.480114 1.401568 -13.312562 18.265395 6.899539 -3.625098 -5.415681 nan nan nan -5.990730 3.883870 2.845371 8.139383 -6.090859 10.450136 2.574551 0.236962 -4.524482 2.826440 -16.107848 23.694143 13.107598 -19.705234 13.881424 -13.579376 -15.544090 5.122730 -80.565288 -53.381868 40.332838 96.761497 -77.437872 -77.110539 -21.641033 -26.018845 -0.986319 14.247219 5.132076 -0.321025 41.801919 16.301681 -12.968755 -109.900836 48.547881 -95.808173 17.197811 15.559035 -8.694847 
14.210364 -39.872139 92.786201 -121.433317 2.955541 85.487981 11.327251 4.795683 -3.716618 -3.760748 0.837749 25.797169 2.757167 9.262785 -28.097274 nan nan nan -13.099508 -11.254258 -11.585858 1.443055 -13.247906 18.573903 6.830178 -3.655862 -5.429154 nan nan nan -6.101366 4.099515 2.728983 8.319395 -5.952654 10.811496 2.733314 0.120195 -4.619592 3.136821 -16.217221 23.314036 12.872865 -19.932214 13.905317 -13.540967 -15.660415 5.179484 -80.814568 -53.371110 40.526369 96.024709 -77.518234 -76.186303 -21.765174 -26.099501 -0.640693 14.230329 4.954189 -0.539752 41.863009 15.907995 -12.922384 -110.044560 48.428150 -95.326672 17.603724 15.366096 -8.589610 
